<svg width="27" height="23" viewBox="0 0 27 23" fill="none" xmlns="http://www.w3.org/2000/svg">
<path d="M5.39999 4.27207C6.51796 4.27207 7.38702 3.30625 7.38702 2.15625C7.38702 1.00625 6.51796 0 5.39999 0C4.28202 0 3.37541 0.96582 3.37541 2.11582C3.37541 3.26582 4.28202 4.27207 5.39999 4.27207ZM21.562 4.27207C22.68 4.27207 23.5491 3.30625 23.5491 2.15625C23.5491 1.00625 22.718 0 21.562 0C20.4441 0 19.537 0.96582 19.537 2.11582C19.537 3.26582 20.482 4.27207 21.562 4.27207ZM25.4601 11.6033L24.6797 8.00373C24.4846 7.10529 23.8941 6.34701 23.0977 5.98764C22.3172 5.62826 21.4903 5.68441 20.7301 6.13363C19.7758 6.73469 19.0586 7.68344 18.7 8.80109L18.2254 10.323L17.5884 10.7835L17.512 6.46875C17.512 6.07568 17.2062 5.75 16.837 5.75H10.125C9.75585 5.75 9.44999 6.07568 9.44999 6.46875V10.7408L8.76993 10.2804L8.29532 8.75842C7.942 7.63537 7.2246 6.69201 6.26525 6.09096C5.53752 5.64174 4.67774 5.58559 3.89769 5.94496C3.10119 6.30434 2.51056 7.06262 2.31566 7.96105L1.54067 11.5606C1.34556 12.4591 1.57234 13.4137 2.14691 14.11L4.98402 17.5186L5.41096 21.6797C5.48436 22.452 6.06655 23 6.74999 23C6.80272 23 6.84491 22.9944 6.89764 22.9888C7.64099 22.9045 8.17382 22.1972 8.08944 21.4053L7.66757 17.2388C7.60428 16.6548 7.37225 16.1103 7.0086 15.6665L5.17893 13.4653L5.92227 10.3037L6.21235 11.2192C6.3811 11.7808 6.71312 12.2749 7.24594 12.685L9.39751 14.145C9.59254 14.2742 9.90882 14.3528 10.1252 14.3696H16.8373C17.0535 14.3528 17.3697 14.2742 17.565 14.145L19.7166 12.685C20.249 12.2751 20.5814 11.7866 20.7502 11.2192L21.0402 10.3037L21.784 13.4653L19.9543 15.6665C19.5904 16.1101 19.3586 16.6548 19.2953 17.2388L18.8735 21.4053C18.7891 22.1968 19.327 22.9048 20.0653 22.9888C20.153 22.9955 20.1951 23 20.212 23C20.8921 23 21.4397 22.4555 21.5515 21.7197L21.9784 17.5586L24.8526 14.1504C25.4264 13.4541 25.6542 12.5018 25.4601 11.6033ZM1.95158 16.0865L0.0953297 21.0279C-0.178889 21.7638 0.158611 22.6002 0.849642 22.898C1.55628 23.19 2.33127 22.8194 2.60549 22.0948L3.77071 18.9894L3.68633 18.1695L1.95158 16.0865ZM26.903 21.0279L25.0847 16.0865L23.3495 18.17L23.2651 18.9898L24.4304 22.0953C24.6037 22.6586 25.11 23 25.612 23C25.7807 23 25.9494 22.9663 26.1128 22.8989C26.8397 22.6002 27.1772 21.7646 26.903 21.0279Z" fill="#949E20"/>
</svg>
