<svg width="42" height="34" viewBox="0 0 42 34" fill="none" xmlns="http://www.w3.org/2000/svg">
<path d="M25.3909 23.7292H16.95C16.4841 23.7292 16.106 24.0465 16.106 24.4375C16.106 24.8285 16.4841 25.1458 16.95 25.1458H25.3909C25.8568 25.1458 26.2349 24.8285 26.2349 24.4375C26.2349 24.0465 25.8568 23.7292 25.3909 23.7292Z" fill="#5E72E4"/>
<path fill-rule="evenodd" clip-rule="evenodd" d="M11.8856 9.5625H30.4554C30.9213 9.5625 31.2995 9.87983 31.2995 10.2708V21.6042C31.2995 21.9952 30.9213 22.3125 30.4554 22.3125H11.8856C11.4197 22.3125 11.0415 21.9952 11.0415 21.6042V10.2708C11.0415 9.87983 11.4197 9.5625 11.8856 9.5625ZM12.7297 20.8958H29.6113V10.9792H12.7297V20.8958Z" fill="#5E72E4"/>
</svg>
