<svg width="24" height="23" viewBox="0 0 24 23" fill="none" xmlns="http://www.w3.org/2000/svg">
<path fill-rule="evenodd" clip-rule="evenodd" d="M12.0221 0.75C5.6549 0.75 0.475098 5.57227 0.475098 11.5C0.475098 17.4277 5.6549 22.25 12.0221 22.25C18.3894 22.25 23.5692 17.4277 23.5692 11.5C23.5692 5.57227 18.3894 0.75 12.0221 0.75ZM8.17312 9.70833C8.17312 7.72944 9.94751 6.125 12.0221 6.125C14.0967 6.125 15.8711 7.72944 15.8711 9.70833V10.6042C15.8711 12.5831 14.0967 14.1875 12.0221 14.1875C9.94751 14.1875 8.17312 12.5831 8.17312 10.6042V9.70833ZM5.86275 18.3746C7.53322 19.6736 9.68097 20.4583 12.0221 20.4583C14.3633 20.4583 16.511 19.6736 18.1815 18.3746C17.3742 16.9565 15.7913 15.9792 13.9466 15.9792H10.0976C8.25299 15.9792 6.67008 16.9565 5.86275 18.3746Z" fill="#17851C"/>
</svg>
