<svg width="20" height="20" viewBox="0 0 20 20" fill="none" xmlns="http://www.w3.org/2000/svg">
<g clip-path="url(#clip0_130_3292)">
<path fill-rule="evenodd" clip-rule="evenodd" d="M11.0554 2.04195C10.7479 0.998196 9.27039 0.998196 8.96289 2.04195L8.84539 2.4407C8.74657 2.77563 8.57408 3.08421 8.34056 3.34385C8.10703 3.60348 7.81838 3.80759 7.49575 3.94122C7.17313 4.07485 6.82469 4.13461 6.47598 4.11614C6.12726 4.09766 5.78709 4.00142 5.48039 3.83445L5.11539 3.63445C4.16039 3.1157 3.11539 4.15945 3.63539 5.1157L3.83414 5.4807C4.00111 5.7874 4.09736 6.12756 4.11583 6.47628C4.13431 6.825 4.07454 7.17343 3.94091 7.49606C3.80728 7.81868 3.60318 8.10733 3.34354 8.34086C3.08391 8.57439 2.77532 8.74688 2.44039 8.8457L2.04164 8.9632C0.997891 9.2707 0.997891 10.7482 2.04164 11.0557L2.44039 11.1732C2.7755 11.272 3.08425 11.4445 3.34402 11.6781C3.60378 11.9117 3.80797 12.2005 3.94162 12.5233C4.07526 12.8461 4.13498 13.1947 4.11638 13.5435C4.09778 13.8924 4.00135 14.2327 3.83414 14.5394L3.63414 14.9032C3.11539 15.8582 4.15914 16.9032 5.11539 16.3832L5.48039 16.1844C5.78718 16.0175 6.12743 15.9213 6.47621 15.9029C6.825 15.8845 7.17348 15.9444 7.49612 16.0781C7.81877 16.2119 8.1074 16.4161 8.34086 16.6759C8.57433 16.9357 8.74672 17.2444 8.84539 17.5794L8.96289 17.9769C9.27039 19.0207 10.7479 19.0207 11.0554 17.9769L11.1729 17.5782C11.2717 17.2431 11.4442 16.9343 11.6778 16.6746C11.9114 16.4148 12.2002 16.2106 12.523 16.077C12.8458 15.9433 13.1944 15.8836 13.5432 15.9022C13.8921 15.9208 14.2324 16.0172 14.5391 16.1844L14.9029 16.3844C15.8579 16.9032 16.9029 15.8594 16.3829 14.9032L16.1841 14.5394C16.017 14.2326 15.9206 13.8922 15.9021 13.5433C15.8835 13.1944 15.9434 12.8457 16.0771 12.5229C16.2109 12.2001 16.4152 11.9114 16.6751 11.6778C16.935 11.4442 17.2439 11.2718 17.5791 11.1732L17.9766 11.0557C19.0204 10.7482 19.0204 9.2707 17.9766 8.9632L17.5779 8.8457C17.243 8.74688 16.9344 8.57439 16.6747 8.34086C16.4151 8.10733 16.211 7.81868 16.0774 7.49606C15.9437 7.17343 15.884 6.825 15.9025 6.47628C15.9209 6.12756 16.0172 5.7874 16.1841 5.4807L16.3841 5.1157C16.9029 4.1607 15.8591 3.1157 14.9029 3.6357L14.5391 3.83445C14.2323 4.00188 13.892 4.09851 13.5429 4.11723C13.1939 4.13595 12.8451 4.07629 12.5222 3.94263C12.1992 3.80896 11.9103 3.60469 11.6766 3.34479C11.4429 3.0849 11.2704 2.77598 11.1716 2.4407L11.0541 2.04195H11.0554ZM7.76414 1.6882C8.42289 -0.549304 11.5954 -0.549304 12.2541 1.6882L12.3716 2.08695C12.4176 2.24314 12.498 2.38705 12.6069 2.50814C12.7157 2.62924 12.8503 2.72443 13.0007 2.78676C13.1511 2.84909 13.3136 2.87696 13.4762 2.86834C13.6388 2.85972 13.7974 2.81483 13.9404 2.73695L14.3054 2.53695C16.3554 1.42195 18.5979 3.6632 17.4804 5.7132L17.2816 6.0782C17.2038 6.22119 17.1589 6.37979 17.1502 6.54239C17.1416 6.70499 17.1695 6.86745 17.2318 7.01787C17.2942 7.1683 17.3894 7.30287 17.5104 7.41172C17.6315 7.52057 17.7755 7.60094 17.9316 7.64695L18.3304 7.76445C20.5679 8.4232 20.5679 11.5957 18.3304 12.2544L17.9316 12.3719C17.7755 12.418 17.6315 12.4983 17.5104 12.6072C17.3894 12.716 17.2942 12.8506 17.2318 13.001C17.1695 13.1514 17.1416 13.3139 17.1502 13.4765C17.1589 13.6391 17.2038 13.7977 17.2816 13.9407L17.4816 14.3057C18.5979 16.3557 16.3541 18.5982 14.3054 17.4807L13.9404 17.2819C13.7974 17.2041 13.6388 17.1592 13.4762 17.1505C13.3136 17.1419 13.1511 17.1698 13.0007 17.2321C12.8503 17.2945 12.7157 17.3897 12.6069 17.5107C12.498 17.6318 12.4176 17.7758 12.3716 17.9319L12.2541 18.3307C11.5954 20.5682 8.42289 20.5682 7.76414 18.3307L7.64664 17.9319C7.60064 17.7758 7.52026 17.6318 7.41141 17.5107C7.30256 17.3897 7.16799 17.2945 7.01757 17.2321C6.86715 17.1698 6.70468 17.1419 6.54209 17.1505C6.37949 17.1592 6.22088 17.2041 6.07789 17.2819L5.71289 17.4819C3.66289 18.5982 1.42164 16.3544 2.53789 14.3057L2.73664 13.9407C2.81452 13.7977 2.85942 13.6391 2.86804 13.4765C2.87666 13.3139 2.84878 13.1514 2.78646 13.001C2.72413 12.8506 2.62893 12.716 2.50784 12.6072C2.38675 12.4983 2.24283 12.418 2.08664 12.3719L1.68789 12.2544C-0.54961 11.5957 -0.54961 8.4232 1.68789 7.76445L2.08664 7.64695C2.24283 7.60094 2.38675 7.52057 2.50784 7.41172C2.62893 7.30287 2.72413 7.1683 2.78646 7.01787C2.84878 6.86745 2.87666 6.70499 2.86804 6.54239C2.85942 6.37979 2.81452 6.22119 2.73664 6.0782L2.53664 5.7132C1.42164 3.6632 3.66414 1.42195 5.71289 2.5382L6.07789 2.73695C6.22088 2.81483 6.37949 2.85972 6.54209 2.86834C6.70468 2.87696 6.86715 2.84909 7.01757 2.78676C7.16799 2.72443 7.30256 2.62924 7.41141 2.50814C7.52026 2.38705 7.60064 2.24314 7.64664 2.08695L7.76414 1.6882Z" fill="#6E7EE1"/>
<path fill-rule="evenodd" clip-rule="evenodd" d="M9.99988 7.19238C9.25529 7.19238 8.54119 7.48817 8.01468 8.01468C7.48817 8.54119 7.19238 9.25529 7.19238 9.99988C7.19238 10.7445 7.48817 11.4586 8.01468 11.9851C8.54119 12.5116 9.25529 12.8074 9.99988 12.8074C10.7445 12.8074 11.4586 12.5116 11.9851 11.9851C12.5116 11.4586 12.8074 10.7445 12.8074 9.99988C12.8074 9.25529 12.5116 8.54119 11.9851 8.01468C11.4586 7.48817 10.7445 7.19238 9.99988 7.19238ZM5.94238 9.99988C5.94238 9.46704 6.04733 8.93942 6.25124 8.44715C6.45515 7.95487 6.75402 7.50757 7.1308 7.1308C7.50757 6.75402 7.95487 6.45515 8.44714 6.25124C8.93942 6.04733 9.46704 5.94238 9.99988 5.94238C10.5327 5.94238 11.0603 6.04733 11.5526 6.25124C12.0449 6.45515 12.4922 6.75402 12.869 7.1308C13.2457 7.50757 13.5446 7.95487 13.7485 8.44715C13.9524 8.93942 14.0574 9.46704 14.0574 9.99988C14.0574 11.076 13.6299 12.108 12.869 12.869C12.108 13.6299 11.076 14.0574 9.99988 14.0574C8.92377 14.0574 7.89173 13.6299 7.1308 12.869C6.36987 12.108 5.94238 11.076 5.94238 9.99988Z" fill="#6E7EE1"/>
</g>
<defs>
<clipPath id="clip0_130_3292">
<rect width="20" height="20" fill="white"/>
</clipPath>
</defs>
</svg>
