<svg width="20" height="20" viewBox="0 0 20 20" fill="none" xmlns="http://www.w3.org/2000/svg">
<g clip-path="url(#clip0_130_3295)">
<path fill-rule="evenodd" clip-rule="evenodd" d="M15.1871 0.165612C15.2452 0.107408 15.3142 0.0612293 15.3901 0.0297212C15.466 -0.00178686 15.5474 -0.0180054 15.6296 -0.0180054C15.7118 -0.0180054 15.7932 -0.00178686 15.8692 0.0297212C15.9451 0.0612293 16.0141 0.107408 16.0721 0.165612L19.8221 3.91561C19.8803 3.97367 19.9265 4.04264 19.958 4.11857C19.9895 4.1945 20.0058 4.2759 20.0058 4.35811C20.0058 4.44032 19.9895 4.52172 19.958 4.59766C19.9265 4.67359 19.8803 4.74256 19.8221 4.80061L7.32214 17.3006C7.26216 17.3602 7.19072 17.407 7.11214 17.4381L0.86214 19.9381C0.74856 19.9836 0.624135 19.9947 0.50429 19.9701C0.384444 19.9455 0.274449 19.8863 0.187941 19.7998C0.101433 19.7133 0.0422163 19.6033 0.017632 19.4835C-0.00695231 19.3636 0.00417707 19.2392 0.0496404 19.1256L2.54964 12.8756C2.5808 12.797 2.62758 12.7256 2.68714 12.6656L15.1871 0.165612ZM14.0134 3.10811L16.8796 5.97436L18.4959 4.35811L15.6296 1.49186L14.0134 3.10811ZM15.9959 6.85811L13.1296 3.99186L5.00464 12.1169V12.4831H5.62964C5.7954 12.4831 5.95437 12.549 6.07158 12.6662C6.18879 12.7834 6.25464 12.9424 6.25464 13.1081V13.7331H6.87964C7.0454 13.7331 7.20437 13.799 7.32158 13.9162C7.43879 14.0334 7.50464 14.1924 7.50464 14.3581V14.9831H7.87089L15.9959 6.85811ZM3.79464 13.3269L3.66214 13.4594L1.75214 18.2356L6.52839 16.3256L6.66089 16.1931C6.54166 16.1486 6.43888 16.0687 6.36628 15.9641C6.29369 15.8596 6.25473 15.7354 6.25464 15.6081V14.9831H5.62964C5.46388 14.9831 5.30491 14.9173 5.1877 14.8001C5.07049 14.6828 5.00464 14.5239 5.00464 14.3581V13.7331H4.37964C4.25236 13.733 4.12815 13.6941 4.02361 13.6215C3.91907 13.5489 3.83919 13.4461 3.79464 13.3269Z" fill="#F5365C"/>
</g>
<defs>
<clipPath id="clip0_130_3295">
<rect width="20" height="20" fill="white"/>
</clipPath>
</defs>
</svg>
