<svg width="521" height="479" viewBox="0 0 521 479" fill="none" xmlns="http://www.w3.org/2000/svg">
<g clip-path="url(#clip0_102_63)">
<path d="M438.578 418.923C435.673 418.923 432.768 418.708 429.863 418.169C329.472 399.974 213.909 365.737 104.372 321.81C79.5165 311.797 67.4653 283.696 77.4721 258.826C87.4789 233.955 115.563 221.897 140.418 231.91C244.037 273.468 352.928 305.768 447.079 322.886C473.441 327.624 490.872 352.817 486.137 379.195C481.941 402.558 461.605 418.923 438.578 418.923Z" fill="#DAC8CD"/>
<path d="M434.92 229.11C433.736 229.11 432.66 229.11 431.477 229.003C268.355 217.59 139.127 199.395 36.4764 173.34C10.5448 166.773 -5.16485 140.395 1.50636 114.448C8.06997 88.5003 34.432 72.889 60.3636 79.4565C157.311 104.112 280.944 121.446 438.255 132.428C464.94 134.258 485.062 157.406 483.232 184.107C481.403 209.623 460.098 229.11 434.92 229.11Z" fill="#C4A6AF"/>
<path d="M82.4217 177.108C66.8197 177.108 52.5088 176.247 40.35 174.201C13.988 169.787 -3.76604 144.701 0.645562 118.323C5.05717 91.9456 30.128 74.1809 56.49 78.5952C81.6685 82.9018 147.305 79.7795 255.873 58.4619C339.156 42.0969 419.641 20.0256 451.705 4.62957C475.808 -6.89054 504.752 3.3376 516.265 27.4545C527.779 51.5714 517.557 80.5332 493.454 92.0533C445.142 115.201 345.289 139.533 274.488 153.53C225.422 163.22 144.077 177.108 82.4217 177.108Z" fill="url(#paint0_linear_102_63)"/>
<path d="M208.852 479C183.136 479 161.831 458.867 160.539 432.92C159.248 406.219 179.8 383.501 206.592 382.21C286.754 378.334 357.017 360.138 415.337 328.054C438.794 315.134 468.168 323.748 481.08 347.219C493.992 370.689 485.384 400.082 461.928 413.002C390.589 452.192 306.23 474.37 211.219 479C210.358 479 209.605 479 208.852 479Z" fill="url(#paint1_linear_102_63)"/>
<path d="M136.177 336.054C111.429 336.054 90.339 317.212 87.9718 292.019C85.497 265.426 105.08 241.739 131.765 239.371C264.006 227.205 329.211 201.688 425.298 148.933C448.755 136.12 478.13 144.626 491.042 168.097C503.846 191.568 495.346 220.96 471.889 233.88C422.07 261.227 378.277 282.975 326.629 299.986C272.936 317.643 213.864 329.056 140.696 335.838C139.189 335.946 137.683 336.054 136.177 336.054Z" fill="url(#paint2_linear_102_63)"/>
</g>
<defs>
<linearGradient id="paint0_linear_102_63" x1="0.201077" y1="87.3831" x2="520.55" y2="91.9965" gradientUnits="userSpaceOnUse">
<stop stop-color="#6E2639"/>
<stop offset="1" stop-color="#C4A6AF"/>
</linearGradient>
<linearGradient id="paint1_linear_102_63" x1="160.625" y1="399.532" x2="486.817" y2="401.579" gradientUnits="userSpaceOnUse">
<stop stop-color="#6E2639"/>
<stop offset="1" stop-color="#C4A6AF"/>
</linearGradient>
<linearGradient id="paint2_linear_102_63" x1="87.94" y1="238.294" x2="496.663" y2="240.906" gradientUnits="userSpaceOnUse">
<stop stop-color="#6E2639"/>
<stop offset="1" stop-color="#C4A6AF"/>
</linearGradient>
<clipPath id="clip0_102_63">
<rect width="521" height="479" fill="white"/>
</clipPath>
</defs>
</svg>
